<svg width="15px" height="15px" viewBox="0 0 15 15" version="1.1" xmlns="http://www.w3.org/2000/svg" xmlns:xlink="http://www.w3.org/1999/xlink">
<g id="Symbols" stroke="none" stroke-width="1" fill="none" fill-rule="evenodd">
    <g id="control/button/restart/global" transform="translate(-13.000000, -13.000000)" fill="#FFFFFF" fill-rule="nonzero">
        <path d="M28,22.3 C28,22.31875 28,22.346875 27.9900728,22.365625 C27.1462608,25.684375 24.2475182,28 20.5843812,28 C18.6485771,28 16.7723362,27.278125 15.3626737,26.0125 L14.0820649,27.221875 C13.9629385,27.334375 13.8041032,27.4 13.6353408,27.4 C13.2878888,27.4 13,27.128125 13,26.8 L13,22.6 C13,22.271875 13.2878888,22 13.6353408,22 L18.0827267,22 C18.4301787,22 18.7180675,22.271875 18.7180675,22.6 C18.7180675,22.759375 18.6485771,22.909375 18.5294507,23.021875 L17.1694242,24.30625 C18.1025811,25.13125 19.3434811,25.6 20.62409,25.6 C22.3911317,25.6 24.0291198,24.7375 24.9523494,23.3125 C25.1906023,22.946875 25.3097287,22.590625 25.4784911,22.215625 C25.5281271,22.084375 25.6273991,22 25.7763071,22 L27.6823296,22 C27.8610192,22 28,22.140625 28,22.3 Z M28,14.2 L28,18.4 C28,18.728125 27.7134387,19 27.3675889,19 L22.9407115,19 C22.5948617,19 22.3083004,18.728125 22.3083004,18.4 C22.3083004,18.240625 22.3774704,18.090625 22.4960474,17.978125 L23.8596838,16.684375 C22.9209486,15.859375 21.6857708,15.4 20.4110672,15.4 C18.6521739,15.4 17.0217391,16.2625 16.1027668,17.6875 C15.8656126,18.053125 15.7470356,18.409375 15.5790514,18.784375 C15.5296443,18.915625 15.43083,19 15.2826087,19 L13.3162055,19 C13.1383399,19 13,18.859375 13,18.7 C13,18.68125 13,18.653125 13,18.634375 C13.8498024,15.30625 16.7648221,13 20.4110672,13 C22.3478261,13 24.2351779,13.73125 25.6383399,14.9875 L26.9229249,13.778125 C27.041502,13.665625 27.1996047,13.6 27.3675889,13.6 C27.7134387,13.6 28,13.871875 28,14.2 Z" id="icon_refresh"></path>
    </g>
</g>
</svg>